<svg width="62" height="57" viewBox="0 0 62 57" fill="none" xmlns="http://www.w3.org/2000/svg">
<path d="M53.5415 1.37185L53.6121 1.57035L60.6562 21.2857L60.66 21.2955L60.6629 21.3063C60.862 22.0163 60.9613 22.7505 60.9586 23.4949C60.9425 27.9052 57.3418 31.4805 52.9313 31.4645C49.6705 31.4526 46.8686 29.4817 45.6344 26.6741C44.3795 29.4724 41.5642 31.4229 38.3035 31.411C35.043 31.3989 32.2421 29.4279 31.0085 26.6206C29.7537 29.4189 26.9383 31.3694 23.6776 31.3574C20.4169 31.3455 17.6152 29.3746 16.3816 26.567C15.1268 29.3651 12.3122 31.3157 9.05174 31.3039C4.64117 31.2877 1.06688 27.6861 1.08303 23.2756C1.0858 22.52 1.19276 21.7761 1.40268 21.058L1.40565 21.0473L1.40663 21.0473L1.57944 20.5245L1.5824 20.5147L8.60946 1.40459L8.68147 1.20758L53.5415 1.37185ZM2.86875 20.9911L2.84902 21.0457L2.84902 21.0467C2.59003 21.7618 2.45693 22.5139 2.45412 23.2806C2.44074 26.9353 5.403 29.9201 9.05675 29.9338C12.7318 29.9472 16.0774 26.965 16.0907 23.3306L16.6913 23.3328L16.6999 23.6717C16.8866 27.1519 20.1223 29.9743 23.6836 29.9873C27.3596 30.0007 30.7072 27.0184 30.7205 23.3841L31.3201 23.3863C31.3068 27.0205 34.6343 30.0273 38.3095 30.0409C41.9842 30.0543 45.3233 27.0724 45.3366 23.4377L45.9372 23.4399L45.9448 23.7788C46.1319 27.2585 49.3748 30.0812 52.9363 30.0944C56.5911 30.1078 59.5751 27.1446 59.5885 23.4898C59.5913 22.7229 59.4646 21.9709 59.2109 21.2541L59.0379 20.7652L58.8958 20.3633L58.9105 20.3633L52.5775 2.73942L9.6364 2.58218L2.86875 20.9911Z" fill="#EB8125" stroke="#EB8125" stroke-width="0.6"/>
<mask id="path-2-outside-1_266_512" maskUnits="userSpaceOnUse" x="5.68678" y="31.2411" width="51.0912" height="25.1866" fill="black">
<rect fill="white" x="5.68678" y="31.2411" width="51.0912" height="25.1866"/>
<path d="M11.5046 55.4407C8.77851 55.0618 6.69976 52.6987 6.70997 49.9097L6.77257 32.8163L7.26117 32.9552C7.86904 33.1284 8.49956 33.217 9.13656 33.2193C10.1995 33.2232 11.2202 32.9928 12.17 32.5341L12.7248 32.2665L12.6658 48.391C12.6635 49.0279 13.1799 49.5482 13.8169 49.5506L48.2155 49.6765C48.8525 49.6788 49.3728 49.1624 49.3751 48.5254L49.4342 32.401L49.987 32.6726C50.9342 33.1382 51.9524 33.3761 53.0154 33.38C53.6524 33.3823 54.2843 33.2984 54.8926 33.1296L55.3822 32.9943L55.3197 50.0877C55.3099 52.762 53.3851 55.0457 50.7898 55.5345M12.1111 54.7243L50.039 54.8632L50.3596 54.8228C52.74 54.5234 54.5422 52.4865 54.5509 50.0848L54.6099 33.9905C54.0865 34.0987 53.5517 34.1522 53.0141 34.1502C52.0374 34.1467 51.0945 33.9653 50.2015 33.6092L50.1469 48.5282C50.143 49.5904 49.2764 50.4507 48.2142 50.4468L13.8149 50.3208C12.7527 50.3169 11.8924 49.4503 11.8963 48.3881L11.9509 33.4692C11.0562 33.8179 10.1112 33.9931 9.13451 33.9896C8.5961 33.9876 8.06175 33.9302 7.53993 33.8181L7.48099 49.9125C7.47181 52.4196 9.42133 54.5265 11.9194 54.7105L12.1104 54.7243L12.1111 54.7243Z"/>
</mask>
<path d="M11.5046 55.4407C8.77851 55.0618 6.69976 52.6987 6.70997 49.9097L6.77257 32.8163L7.26117 32.9552C7.86904 33.1284 8.49956 33.217 9.13656 33.2193C10.1995 33.2232 11.2202 32.9928 12.17 32.5341L12.7248 32.2665L12.6658 48.391C12.6635 49.0279 13.1799 49.5482 13.8169 49.5506L48.2155 49.6765C48.8525 49.6788 49.3728 49.1624 49.3751 48.5254L49.4342 32.401L49.987 32.6726C50.9342 33.1382 51.9524 33.3761 53.0154 33.38C53.6524 33.3823 54.2843 33.2984 54.8926 33.1296L55.3822 32.9943L55.3197 50.0877C55.3099 52.762 53.3851 55.0457 50.7898 55.5345M12.1111 54.7243L50.039 54.8632L50.3596 54.8228C52.74 54.5234 54.5422 52.4865 54.5509 50.0848L54.6099 33.9905C54.0865 34.0987 53.5517 34.1522 53.0141 34.1502C52.0374 34.1467 51.0945 33.9653 50.2015 33.6092L50.1469 48.5282C50.143 49.5904 49.2764 50.4507 48.2142 50.4468L13.8149 50.3208C12.7527 50.3169 11.8924 49.4503 11.8963 48.3881L11.9509 33.4692C11.0562 33.8179 10.1112 33.9931 9.13451 33.9896C8.5961 33.9876 8.06175 33.9302 7.53993 33.8181L7.48099 49.9125C7.47181 52.4196 9.42133 54.5265 11.9194 54.7105L12.1104 54.7243L12.1111 54.7243Z" fill="#EBC025"/>
<path d="M6.77257 32.8163L6.93663 32.2391L6.17547 32.0228L6.17257 32.8141L6.77257 32.8163ZM7.26117 32.9552L7.42561 32.3781L7.42523 32.378L7.26117 32.9552ZM12.17 32.5341L11.9094 31.9937L11.9091 31.9938L12.17 32.5341ZM12.7248 32.2665L13.3248 32.2687L13.3283 31.3094L12.4642 31.7261L12.7248 32.2665ZM49.4342 32.401L49.6987 31.8624L48.8377 31.4394L48.8342 32.3988L49.4342 32.401ZM49.987 32.6726L50.2517 32.1341L50.2516 32.1341L49.987 32.6726ZM54.8926 33.1296L54.7328 32.5513L54.7322 32.5514L54.8926 33.1296ZM55.3822 32.9943L55.9822 32.9965L55.9851 32.2052L55.2224 32.416L55.3822 32.9943ZM50.039 54.8632L50.0368 55.4632L50.0756 55.4633L50.1141 55.4585L50.039 54.8632ZM50.3596 54.8228L50.2847 54.2275L50.2845 54.2275L50.3596 54.8228ZM54.6099 33.9905L55.2099 33.9927L55.2126 33.2531L54.4884 33.4029L54.6099 33.9905ZM50.2015 33.6092L50.4238 33.0519L49.6048 32.7253L49.6015 33.607L50.2015 33.6092ZM11.9509 33.4692L12.5509 33.4714L12.5542 32.5901L11.7331 32.9101L11.9509 33.4692ZM7.53993 33.8181L7.6659 33.2315L6.94264 33.0762L6.93993 33.8159L7.53993 33.8181ZM11.9194 54.7105L11.8753 55.3089L11.8761 55.3089L11.9194 54.7105ZM12.1104 54.7243L12.0671 55.3227L12.0876 55.3242L12.1082 55.3243L12.1104 54.7243ZM11.5046 55.4407L11.5872 54.8465C9.15657 54.5086 7.30086 52.3987 7.30997 49.9119L6.70997 49.9097L6.10998 49.9075C6.09866 52.9988 8.40046 55.615 11.422 56.035L11.5046 55.4407ZM6.70997 49.9097L7.30997 49.9119L7.37256 32.8185L6.77257 32.8163L6.17257 32.8141L6.10998 49.9075L6.70997 49.9097ZM6.77257 32.8163L6.6085 33.3934L7.09711 33.5323L7.26117 32.9552L7.42523 32.378L6.93663 32.2391L6.77257 32.8163ZM7.26117 32.9552L7.09674 33.5322C7.758 33.7206 8.44314 33.8168 9.13436 33.8193L9.13656 33.2193L9.13876 32.6193C8.55598 32.6172 7.98008 32.5362 7.42561 32.3781L7.26117 32.9552ZM9.13656 33.2193L9.13436 33.8193C10.2876 33.8235 11.3983 33.573 12.4309 33.0744L12.17 32.5341L11.9091 31.9938C11.042 32.4125 10.1114 32.6229 9.13876 32.6193L9.13656 33.2193ZM12.17 32.5341L12.4307 33.0745L12.9855 32.807L12.7248 32.2665L12.4642 31.7261L11.9094 31.9937L12.17 32.5341ZM12.7248 32.2665L12.1248 32.2643L12.0658 48.3888L12.6658 48.391L13.2658 48.3931L13.3248 32.2687L12.7248 32.2665ZM12.6658 48.391L12.0658 48.3888C12.0623 49.3571 12.8464 50.147 13.8147 50.1506L13.8169 49.5506L13.8191 48.9506C13.5135 48.9494 13.2647 48.6988 13.2658 48.3931L12.6658 48.391ZM13.8169 49.5506L13.8147 50.1506L48.2133 50.2765L48.2155 49.6765L48.2177 49.0765L13.8191 48.9506L13.8169 49.5506ZM48.2155 49.6765L48.2133 50.2765C49.1817 50.2801 49.9716 49.4959 49.9751 48.5276L49.3751 48.5254L48.7751 48.5232C48.774 48.8288 48.5233 49.0776 48.2177 49.0765L48.2155 49.6765ZM49.3751 48.5254L49.9751 48.5276L50.0342 32.4032L49.4342 32.401L48.8342 32.3988L48.7751 48.5232L49.3751 48.5254ZM49.4342 32.401L49.1696 32.9395L49.7224 33.2111L49.987 32.6726L50.2516 32.1341L49.6987 31.8624L49.4342 32.401ZM49.987 32.6726L49.7223 33.211C50.7518 33.7171 51.8598 33.9758 53.0132 33.98L53.0154 33.38L53.0176 32.78C52.045 32.7764 51.1167 32.5593 50.2517 32.1341L49.987 32.6726ZM53.0154 33.38L53.0132 33.98C53.7043 33.9825 54.391 33.8914 55.053 33.7077L54.8926 33.1296L54.7322 32.5514C54.1776 32.7053 53.6004 32.7821 53.0176 32.78L53.0154 33.38ZM54.8926 33.1296L55.0525 33.7079L55.5421 33.5726L55.3822 32.9943L55.2224 32.416L54.7328 32.5513L54.8926 33.1296ZM55.3822 32.9943L54.7823 32.9921L54.7197 50.0855L55.3197 50.0877L55.9197 50.0899L55.9822 32.9965L55.3822 32.9943ZM55.3197 50.0877L54.7197 50.0855C54.7109 52.4705 52.9929 54.509 50.6788 54.9449L50.7898 55.5345L50.9009 56.1242C53.7773 55.5823 55.9088 53.0535 55.9197 50.0899L55.3197 50.0877ZM12.1111 54.7243L12.1089 55.3243L50.0368 55.4632L50.039 54.8632L50.0412 54.2632L12.1133 54.1243L12.1111 54.7243ZM50.039 54.8632L50.1141 55.4585L50.4346 55.4181L50.3596 54.8228L50.2845 54.2275L49.9639 54.2679L50.039 54.8632ZM50.3596 54.8228L50.4344 55.4181C53.1145 55.081 55.141 52.7898 55.1509 50.087L54.5509 50.0848L53.951 50.0826C53.9433 52.1831 52.3655 53.9658 50.2847 54.2275L50.3596 54.8228ZM54.5509 50.0848L55.1509 50.087L55.2099 33.9927L54.6099 33.9905L54.0099 33.9883L53.951 50.0826L54.5509 50.0848ZM54.6099 33.9905L54.4884 33.4029C54.006 33.5027 53.5127 33.5521 53.0163 33.5502L53.0141 34.1502L53.0119 34.7502C53.5908 34.7523 54.167 34.6947 54.7314 34.578L54.6099 33.9905ZM53.0141 34.1502L53.0163 33.5502C52.1138 33.5469 51.2456 33.3796 50.4238 33.0519L50.2015 33.6092L49.9793 34.1666C50.9434 34.551 51.9611 34.7464 53.0119 34.7502L53.0141 34.1502ZM50.2015 33.6092L49.6015 33.607L49.5469 48.526L50.1469 48.5282L50.7469 48.5304L50.8015 33.6114L50.2015 33.6092ZM50.1469 48.5282L49.5469 48.526C49.5442 49.2568 48.9472 49.8495 48.2164 49.8468L48.2142 50.4468L48.212 51.0468C49.6056 51.0519 50.7418 49.9239 50.7469 48.5304L50.1469 48.5282ZM48.2142 50.4468L48.2164 49.8468L13.8171 49.7208L13.8149 50.3208L13.8127 50.9208L48.212 51.0468L48.2142 50.4468ZM13.8149 50.3208L13.8171 49.7208C13.0863 49.7181 12.4936 49.1211 12.4963 48.3903L11.8963 48.3881L11.2963 48.3859C11.2912 49.7795 12.4191 50.9157 13.8127 50.9208L13.8149 50.3208ZM11.8963 48.3881L12.4963 48.3903L12.5509 33.4714L11.9509 33.4692L11.3509 33.467L11.2963 48.3859L11.8963 48.3881ZM11.9509 33.4692L11.7331 32.9101C10.9093 33.2312 10.039 33.3929 9.13671 33.3896L9.13451 33.9896L9.13231 34.5896C10.1834 34.5934 11.2031 34.4046 12.1688 34.0282L11.9509 33.4692ZM9.13451 33.9896L9.13671 33.3896C8.6395 33.3877 8.14665 33.3347 7.6659 33.2315L7.53993 33.8181L7.41395 34.4047C7.97686 34.5256 8.5527 34.5874 9.13231 34.5896L9.13451 33.9896ZM7.53993 33.8181L6.93993 33.8159L6.881 49.9103L7.48099 49.9125L8.08099 49.9147L8.13992 33.8203L7.53993 33.8181ZM7.48099 49.9125L6.881 49.9103C6.87067 52.7323 9.06268 55.1017 11.8753 55.3089L11.9194 54.7105L11.9635 54.1121C9.77998 53.9513 8.07296 52.107 8.08099 49.9147L7.48099 49.9125ZM11.9194 54.7105L11.8761 55.3089L12.0671 55.3227L12.1104 54.7243L12.1536 54.1259L11.9626 54.1121L11.9194 54.7105ZM12.1104 54.7243L12.1082 55.3243L12.1089 55.3243L12.1111 54.7243L12.1133 54.1243L12.1125 54.1243L12.1104 54.7243Z" fill="#EBC025" mask="url(#path-2-outside-1_266_512)"/>
<path d="M50.9342 55.1241L11.4072 55.0288L11.4048 56.0343L50.9318 56.1295L50.9342 55.1241Z" fill="#EBC025"/>
</svg>
