<svg width="79" height="84" viewBox="0 0 79 84" fill="none" xmlns="http://www.w3.org/2000/svg">
<path d="M16.9503 64.0101C13.0803 59.6401 10.8503 54.3301 10.2703 48.0901C9.53033 40.1301 11.6803 33.0301 16.7303 26.8001C22.0403 20.2401 28.6403 16.4401 36.5503 15.4001C42.7803 14.5801 48.4903 15.6601 53.6903 18.6201L60.4103 10.3101C53.1903 5.72008 44.9703 3.99009 35.7603 5.14009C24.9703 6.48009 16.1703 11.3701 9.35034 19.7901C2.53034 28.2101 -0.699678 38.1601 0.140322 49.0201C0.860322 58.3101 4.27033 66.0301 10.3403 72.2001L16.9603 64.0101H16.9503Z" fill="#1B9AED"/>
<path d="M61.3703 24.9001C65.1203 29.2001 67.3003 34.4301 67.9003 40.5901C68.6803 48.5301 66.6103 55.5501 61.6803 61.6401C56.3203 68.2601 49.6603 72.1301 41.7003 73.2401C35.4803 74.1101 29.8003 73.1101 24.6703 70.2401L18.1003 78.3601C25.4303 82.8601 33.5803 84.6001 42.5503 83.5601C53.3903 82.3101 62.3003 77.3601 69.2803 68.7301C76.3603 59.9801 79.3903 50.2201 78.3603 39.4401C77.5103 30.5001 74.0703 22.9001 68.0603 16.6201L61.3703 24.8901V24.9001Z" fill="#1B9AED"/>
<path d="M70.1455 2.2248L48.2609 29.2693C47.3993 30.3341 47.5639 31.8957 48.6287 32.7573C49.6934 33.6188 51.255 33.4542 52.1166 32.3894L74.0012 5.3449C74.8628 4.28016 74.6981 2.71854 73.6334 1.85695C72.5687 0.995361 71.007 1.16007 70.1455 2.2248Z" fill="#1B9AED"/>
</svg>
