<svg width="757" height="125" viewBox="0 0 757 125" fill="none" xmlns="http://www.w3.org/2000/svg">
<path d="M0 0H16.6V46.74H74.69V0H91.1V121.53H74.69V63.15H16.6V121.53H0V0Z" fill="#2653C4"/>
<path d="M106.83 82.3299C106.83 71.8499 110.78 62.8599 118.69 55.3799C126.6 47.8999 136.1 44.1499 147.2 44.1499C158.3 44.1499 167.37 47.9199 175.2 55.4599C183.03 62.9999 186.95 71.9599 186.95 82.3299C186.95 93.3099 183.08 102.59 175.35 110.17C167.61 117.75 158.12 121.54 146.87 121.54C135.62 121.54 126.32 117.72 118.53 110.09C110.74 102.45 106.84 93.1999 106.84 82.3399L106.83 82.3299ZM176.41 82.7899C176.41 74.7799 173.52 68.0299 167.74 62.5399C161.96 57.0499 154.85 54.3099 146.41 54.3099C137.97 54.3099 131.52 57.0999 125.79 62.6899C120.07 68.2699 117.21 74.9799 117.21 82.7999C117.21 90.6199 120.15 97.4499 126.02 102.94C131.89 108.43 139.09 111.17 147.6 111.17C155.43 111.17 162.19 108.37 167.87 102.77C173.55 97.1699 176.4 90.5099 176.4 82.7999L176.41 82.7899Z" fill="#2653C4"/>
<path d="M244.43 48.8901H255.41L273.26 78.1401L290.91 48.8901H301.91L278.07 88.2401V121.54H268.15V88.3501L244.43 48.8901Z" fill="#2653C4"/>
<path d="M311.1 48.8901H360.14L325.44 111.73H359.46V121.54H309.39L343.89 58.8101H311.1V48.8901Z" fill="#2653C4"/>
<path d="M461.08 45.98L514.8 101.2V48.89H524.72V124.91L471 69.94V121.55H461.08V45.99V45.98Z" fill="#2653C4"/>
<path d="M535.1 48.8901H579.52V58.8101H562.18V121.54H552.37V58.8101H535.09V48.8901H535.1Z" fill="#2653C4"/>
<path d="M683.78 2.83008H756.36V19.0401H728.03V121.54H712V19.0401H683.77V2.83008H683.78Z" fill="#2653C4"/>
<path d="M664.96 28.9701H648.93V121.54H664.96V28.9701Z" fill="#2653C4"/>
<path d="M664.96 2.83008H648.93V19.0501H664.96V2.83008Z" fill="#2653C4"/>
<path d="M664.96 2.83008H648.74V19.0501H664.96V2.83008Z" fill="#2653C4"/>
<path d="M528.92 2.83008H515.7C514.04 2.83008 512.7 4.17008 512.7 5.83008V16.0501C512.7 17.7101 514.04 19.0501 515.7 19.0501H542.14C543.8 19.0501 545.14 17.7101 545.14 16.0501V5.83008C545.14 4.17008 543.8 2.83008 542.14 2.83008H528.92Z" fill="#1B9AED"/>
<path d="M596.98 2.83008H583.76C582.1 2.83008 580.76 4.17008 580.76 5.83008V16.0501C580.76 17.7101 582.1 19.0501 583.76 19.0501H610.2C611.86 19.0501 613.2 17.7101 613.2 16.0501V5.83008C613.2 4.17008 611.86 2.83008 610.2 2.83008H596.98Z" fill="#1B9AED"/>
<path d="M474.29 2.83008H464.07C462.413 2.83008 461.07 4.17322 461.07 5.83008V16.0501C461.07 17.7069 462.413 19.0501 464.07 19.0501H474.29C475.947 19.0501 477.29 17.7069 477.29 16.0501V5.83008C477.29 4.17322 475.947 2.83008 474.29 2.83008Z" fill="#1B9AED"/>
<path d="M199.53 48.8901H214.93C222.59 48.8901 228.83 50.8401 233.65 54.7301C238.47 58.6301 240.87 63.6101 240.87 69.7001C240.87 74.5601 239.31 78.8601 236.2 82.5801C233.08 86.3001 228.22 88.9301 221.62 90.4501L242.27 121.54H231.13L211.41 91.6601H209.23V121.54H199.52V48.8901H199.53ZM209.23 57.6701V82.9901C223.55 83.2901 230.71 79.0601 230.71 70.2701C230.71 67.1901 229.87 64.6701 228.2 62.7101C226.53 60.7501 224.29 59.4201 221.51 58.7201C218.72 58.0201 214.63 57.6601 209.24 57.6601L209.23 57.6701Z" fill="#2653C4"/>
<path d="M386.95 103.01C383.08 98.6401 380.85 93.3301 380.27 87.0901C379.53 79.1301 381.68 72.0301 386.73 65.8001C392.04 59.2401 398.64 55.4401 406.55 54.4001C412.78 53.5801 418.49 54.6601 423.69 57.6201L430.41 49.3101C423.19 44.7201 414.97 42.9901 405.76 44.1401C394.97 45.4801 386.17 50.3701 379.35 58.7901C372.53 67.2101 369.3 77.1601 370.14 88.0201C370.86 97.3101 374.27 105.03 380.34 111.2L386.96 103.01H386.95Z" fill="#1B9AED"/>
<path d="M431.37 63.9001C435.12 68.2001 437.3 73.4301 437.9 79.5901C438.68 87.5301 436.61 94.5501 431.68 100.64C426.32 107.26 419.66 111.13 411.7 112.24C405.48 113.11 399.8 112.11 394.67 109.24L388.1 117.36C395.43 121.86 403.58 123.6 412.55 122.56C423.39 121.31 432.3 116.36 439.28 107.73C446.36 98.9801 449.39 89.2201 448.36 78.4401C447.51 69.5001 444.07 61.9001 438.06 55.6201L431.37 63.8901V63.9001Z" fill="#1B9AED"/>
<path d="M440.145 41.2248L418.261 68.2693C417.399 69.3341 417.564 70.8957 418.629 71.7573C419.693 72.6188 421.255 72.4542 422.117 71.3894L444.001 44.3449C444.863 43.2802 444.698 41.7185 443.633 40.8569C442.569 39.9954 441.007 40.1601 440.145 41.2248Z" fill="#1B9AED"/>
</svg>
