<svg width="66" height="66" viewBox="0 0 66 66" fill="none" xmlns="http://www.w3.org/2000/svg">
<mask id="path-1-inside-1_266_520" fill="white">
<path d="M37.3857 11.2348H28.6753C28.4853 11.2348 28.3122 11.1309 28.2223 10.9637L27.6286 9.86029C27.4283 9.48831 27.4386 9.05003 27.6551 8.68762C27.8717 8.3252 28.2533 8.10864 28.6753 8.10864H37.3857C37.8078 8.10864 38.1894 8.3252 38.4059 8.68762C38.6225 9.05003 38.6328 9.48831 38.4324 9.86029L37.8387 10.9637C37.7489 11.1309 37.575 11.2348 37.3857 11.2348ZM28.8087 10.4982H37.2531L37.7842 9.51114C37.8616 9.3675 37.8579 9.20545 37.7739 9.0655C37.6899 8.92554 37.5492 8.84525 37.3857 8.84525H28.6753C28.5125 8.84525 28.3711 8.92554 28.2871 9.0655C28.2039 9.20545 28.2002 9.36824 28.2768 9.51114L28.8079 10.4982H28.8087Z"/>
</mask>
<path d="M37.3857 11.2348H28.6753C28.4853 11.2348 28.3122 11.1309 28.2223 10.9637L27.6286 9.86029C27.4283 9.48831 27.4386 9.05003 27.6551 8.68762C27.8717 8.3252 28.2533 8.10864 28.6753 8.10864H37.3857C37.8078 8.10864 38.1894 8.3252 38.4059 8.68762C38.6225 9.05003 38.6328 9.48831 38.4324 9.86029L37.8387 10.9637C37.7489 11.1309 37.575 11.2348 37.3857 11.2348ZM28.8087 10.4982H37.2531L37.7842 9.51114C37.8616 9.3675 37.8579 9.20545 37.7739 9.0655C37.6899 8.92554 37.5492 8.84525 37.3857 8.84525H28.6753C28.5125 8.84525 28.3711 8.92554 28.2871 9.0655C28.2039 9.20545 28.2002 9.36824 28.2768 9.51114L28.8079 10.4982H28.8087Z" fill="#EBC025"/>
<path d="M28.2223 10.9637L29.1032 10.4903L29.1029 10.4899L28.2223 10.9637ZM27.6286 9.86029L28.5092 9.38647L28.509 9.38609L27.6286 9.86029ZM38.4324 9.86029L37.552 9.38609L37.5518 9.38648L38.4324 9.86029ZM37.8387 10.9637L36.9581 10.4899L36.9579 10.4903L37.8387 10.9637ZM37.2531 10.4982V11.4982H37.8506L38.1337 10.972L37.2531 10.4982ZM37.7842 9.51114L36.9038 9.03704L36.9036 9.03732L37.7842 9.51114ZM28.2871 9.0655L27.4296 8.551L27.4277 8.55433L28.2871 9.0655ZM28.2768 9.51114L27.3955 9.98362L27.3962 9.98497L28.2768 9.51114ZM28.8079 10.4982L27.9273 10.972L28.2104 11.4982H28.8079V10.4982ZM37.3857 11.2348V10.2348H28.6753V11.2348V12.2348H37.3857V11.2348ZM28.6753 11.2348V10.2348C28.8546 10.2348 29.0193 10.3342 29.1032 10.4903L28.2223 10.9637L27.3415 11.4371C27.6051 11.9276 28.116 12.2348 28.6753 12.2348V11.2348ZM28.2223 10.9637L29.1029 10.4899L28.5092 9.38647L27.6286 9.86029L26.748 10.3341L27.3417 11.4376L28.2223 10.9637ZM27.6286 9.86029L28.509 9.38609C28.4761 9.32486 28.4771 9.26151 28.5136 9.20057L27.6551 8.68762L26.7967 8.17466C26.4 8.83855 26.3805 9.65175 26.7482 10.3345L27.6286 9.86029ZM27.6551 8.68762L28.5136 9.20057C28.5497 9.14009 28.6053 9.10864 28.6753 9.10864V8.10864V7.10864C27.9012 7.10864 27.1937 7.51032 26.7967 8.17466L27.6551 8.68762ZM28.6753 8.10864V9.10864H37.3857V8.10864V7.10864H28.6753V8.10864ZM37.3857 8.10864V9.10864C37.4557 9.10864 37.5114 9.14009 37.5475 9.20057L38.4059 8.68762L39.2643 8.17466C38.8674 7.51032 38.1599 7.10864 37.3857 7.10864V8.10864ZM38.4059 8.68762L37.5475 9.20057C37.5839 9.2615 37.585 9.32486 37.552 9.38609L38.4324 9.86029L39.3129 10.3345C39.6806 9.65176 39.6611 8.83855 39.2643 8.17466L38.4059 8.68762ZM38.4324 9.86029L37.5518 9.38648L36.9581 10.4899L37.8387 10.9637L38.7194 11.4376L39.3131 10.3341L38.4324 9.86029ZM37.8387 10.9637L36.9579 10.4903C37.0422 10.3335 37.2065 10.2348 37.3857 10.2348V11.2348V12.2348C37.9435 12.2348 38.4556 11.9283 38.7196 11.4371L37.8387 10.9637ZM28.8087 10.4982V11.4982H37.2531V10.4982V9.4982H28.8087V10.4982ZM37.2531 10.4982L38.1337 10.972L38.6648 9.98497L37.7842 9.51114L36.9036 9.03732L36.3725 10.0244L37.2531 10.4982ZM37.7842 9.51114L38.6647 9.98524C38.9091 9.53136 38.897 8.99365 38.6314 8.551L37.7739 9.0655L36.9164 9.57999C36.8728 9.50726 36.8422 9.41426 36.8398 9.30997C36.8374 9.20569 36.8636 9.11152 36.9038 9.03704L37.7842 9.51114ZM37.7739 9.0655L38.6314 8.551C38.3679 8.11189 37.9029 7.84525 37.3857 7.84525V8.84525V9.84525C37.3011 9.84525 37.2059 9.82363 37.1156 9.77232C37.0255 9.7211 36.959 9.65103 36.9164 9.57999L37.7739 9.0655ZM37.3857 8.84525V7.84525H28.6753V8.84525V9.84525H37.3857V8.84525ZM28.6753 8.84525V7.84525C28.1598 7.84525 27.6936 8.11109 27.4297 8.551L28.2871 9.0655L29.1446 9.57999C29.1014 9.6521 29.0346 9.72189 28.9452 9.77262C28.8558 9.82338 28.7609 9.84525 28.6753 9.84525V8.84525ZM28.2871 9.0655L27.4277 8.55433C27.1658 8.99464 27.1527 9.53064 27.3955 9.98362L28.2768 9.51114L29.1582 9.03867C29.1989 9.11457 29.2241 9.20828 29.2218 9.31021C29.2194 9.41209 29.19 9.50382 29.1466 9.57666L28.2871 9.0655ZM28.2768 9.51114L27.3962 9.98497L27.9273 10.972L28.8079 10.4982L29.6885 10.0244L29.1575 9.03732L28.2768 9.51114ZM28.8079 10.4982V11.4982H28.8087V10.4982V9.4982H28.8079V10.4982Z" fill="#EBC025" mask="url(#path-1-inside-1_266_520)"/>
<path d="M45.5709 5.70947C47.9737 5.70947 49.9283 7.66413 49.9283 10.0669V55.9214C49.9282 58.324 47.9736 60.2778 45.5709 60.2778H20.4508C18.0481 60.2778 16.0934 58.3231 16.0934 55.9204V10.0669C16.0934 7.66413 18.048 5.70947 20.4508 5.70947H45.5709ZM20.4508 7.05811C18.7919 7.05811 17.442 8.408 17.442 10.0669V55.9214C17.4422 57.5801 18.792 58.9302 20.4508 58.9302H45.5709C47.2297 58.9302 48.5795 57.5801 48.5797 55.9214V10.0669C48.5797 8.408 47.2298 7.05811 45.5709 7.05811H20.4508Z" fill="#EB8125" stroke="#EB8125" stroke-width="0.6"/>
<path d="M49.5535 51.5278V52.8765H16.4675V51.5278H49.5535Z" fill="#EB8125" stroke="#EB8125" stroke-width="0.6"/>
<path d="M34.1413 23.4674L30.7979 40.4622L31.5322 40.6066L34.8757 23.6118L34.1413 23.4674Z" fill="#EBC025"/>
<mask id="path-6-inside-2_266_520" fill="white">
<path d="M33.0309 57.7272C32.1639 57.7272 31.4583 57.0216 31.4583 56.1546C31.4583 55.2876 32.1639 54.5819 33.0309 54.5819C33.8979 54.5819 34.6036 55.2876 34.6036 56.1546C34.6036 57.0216 33.8979 57.7272 33.0309 57.7272ZM33.0309 55.3296C32.5764 55.3296 32.2059 55.6993 32.2059 56.1546C32.2059 56.6098 32.5757 56.9796 33.0309 56.9796C33.4861 56.9796 33.8559 56.6098 33.8559 56.1546C33.8559 55.6993 33.4861 55.3296 33.0309 55.3296Z"/>
</mask>
<path d="M33.0309 57.7272C32.1639 57.7272 31.4583 57.0216 31.4583 56.1546C31.4583 55.2876 32.1639 54.5819 33.0309 54.5819C33.8979 54.5819 34.6036 55.2876 34.6036 56.1546C34.6036 57.0216 33.8979 57.7272 33.0309 57.7272ZM33.0309 55.3296C32.5764 55.3296 32.2059 55.6993 32.2059 56.1546C32.2059 56.6098 32.5757 56.9796 33.0309 56.9796C33.4861 56.9796 33.8559 56.6098 33.8559 56.1546C33.8559 55.6993 33.4861 55.3296 33.0309 55.3296Z" fill="#EBC025"/>
<path d="M33.0309 57.7272V56.7272C32.7162 56.7272 32.4583 56.4693 32.4583 56.1546H31.4583H30.4583C30.4583 57.5738 31.6116 58.7272 33.0309 58.7272V57.7272ZM31.4583 56.1546H32.4583C32.4583 55.8399 32.7162 55.5819 33.0309 55.5819V54.5819V53.5819C31.6116 53.5819 30.4583 54.7353 30.4583 56.1546H31.4583ZM33.0309 54.5819V55.5819C33.3456 55.5819 33.6036 55.8399 33.6036 56.1546H34.6036H35.6036C35.6036 54.7353 34.4502 53.5819 33.0309 53.5819V54.5819ZM34.6036 56.1546H33.6036C33.6036 56.4693 33.3456 56.7272 33.0309 56.7272V57.7272V58.7272C34.4502 58.7272 35.6036 57.5738 35.6036 56.1546H34.6036ZM33.0309 55.3296V54.3296C32.0247 54.3296 31.2059 55.1465 31.2059 56.1546H32.2059H33.2059C33.2059 56.2522 33.1281 56.3296 33.0309 56.3296V55.3296ZM32.2059 56.1546H31.2059C31.2059 57.1621 32.0234 57.9796 33.0309 57.9796V56.9796V55.9796C33.128 55.9796 33.2059 56.0575 33.2059 56.1546H32.2059ZM33.0309 56.9796V57.9796C34.0384 57.9796 34.8559 57.1621 34.8559 56.1546H33.8559H32.8559C32.8559 56.0575 32.9339 55.9796 33.0309 55.9796V56.9796ZM33.8559 56.1546H34.8559C34.8559 55.1471 34.0384 54.3296 33.0309 54.3296V55.3296V56.3296C32.9338 56.3296 32.8559 56.2516 32.8559 56.1546H33.8559Z" fill="#EBC025" mask="url(#path-6-inside-2_266_520)"/>
<path d="M23.9227 31.7315L28.7703 36.5791L29.2911 36.0584L24.9643 31.7315L29.2911 27.4047L28.7703 26.8839" fill="#EBC025"/>
<path d="M41.5537 31.7755L36.7061 36.6231L36.1853 36.1023L40.5121 31.7755L36.1853 27.4486L36.7061 26.9279" fill="#EBC025"/>
</svg>
