<svg width="56" height="56" viewBox="0 0 56 56" fill="none" xmlns="http://www.w3.org/2000/svg">
<mask id="path-1-outside-1_266_508" maskUnits="userSpaceOnUse" x="29.269" y="0.0518799" width="27" height="27" fill="black">
<rect fill="white" x="29.269" y="0.0518799" width="27" height="27"/>
<path d="M43.2278 25.7784H42.0368C41.0519 25.7784 40.2484 25.173 40.2265 24.4229L39.8412 21.9882C39.3944 21.8427 38.9587 21.6628 38.5419 21.45L36.5481 22.8992C36.0019 23.4146 35.0061 23.2742 34.3093 22.5775L33.4671 21.7352C32.771 21.0391 32.6306 20.0426 33.1461 19.4964L34.5959 17.5033C34.3839 17.0866 34.2033 16.6515 34.0586 16.2048L31.6246 15.8195C30.8744 15.7976 30.269 14.994 30.269 14.0092V12.8182C30.269 11.8333 30.8744 11.0298 31.6246 11.0079L34.0593 10.6233C34.2048 10.1765 34.3846 9.74151 34.5974 9.32476L33.1483 7.33094C32.8902 7.05749 32.7842 6.65609 32.858 6.22472C32.9275 5.81966 33.1446 5.41826 33.4693 5.09291L34.3115 4.25063C35.0083 3.55458 36.0041 3.4142 36.5503 3.92966L38.5434 5.37951C38.9601 5.16748 39.3952 4.98689 39.8419 4.84212L40.2272 2.40742C40.2484 1.65727 41.0527 1.05188 42.0375 1.05188H43.2286C44.2134 1.05188 45.0169 1.65727 45.0389 2.40742L45.4234 4.84212C45.8694 4.98689 46.3037 5.16748 46.7205 5.37951L48.7136 3.92966C48.987 3.67157 49.3884 3.56555 49.8198 3.63939C50.2249 3.70885 50.6263 3.926 50.9516 4.25063L51.7939 5.09291C52.1193 5.41826 52.3364 5.82039 52.4051 6.22472C52.479 6.65609 52.373 7.05749 52.1149 7.33094L50.6657 9.32476C50.8778 9.74151 51.0584 10.1765 51.2039 10.6233L53.6386 11.0071C54.3887 11.0283 54.9941 11.8326 54.9941 12.8174V14.0085C54.9941 14.9933 54.3887 15.7968 53.6386 15.8188L51.2046 16.2041C51.0598 16.6501 50.8792 17.0858 50.6672 17.5026L52.1171 19.4957C52.6325 20.0419 52.4921 21.0377 51.7961 21.7345L50.9538 22.5767C50.2578 23.2728 49.2612 23.4132 48.715 22.8984L46.7212 21.4493C46.3045 21.6613 45.8694 21.8419 45.4227 21.9874L45.0381 24.4221C45.0169 25.1723 44.2127 25.7777 43.2278 25.7777V25.7784ZM38.4834 20.6078L38.6816 20.7152C39.1817 20.9865 39.7132 21.2066 40.2616 21.3696L40.478 21.434L40.9415 24.3636V24.3922C40.9415 24.7095 41.3912 25.0633 42.0368 25.0633H43.2278C43.8734 25.0633 44.3231 24.7095 44.3231 24.3922V24.3644L44.7852 21.4347L45.0016 21.3703C45.5492 21.2073 46.0807 20.9872 46.5808 20.716L46.779 20.6085L49.1786 22.3523L49.1983 22.372C49.4228 22.5965 49.9909 22.5285 50.4471 22.0722L51.2894 21.23C51.7456 20.7737 51.8136 20.2056 51.5892 19.9812L51.5694 19.9614L49.8249 17.5625L49.9324 17.3644C50.2037 16.8643 50.4237 16.3328 50.586 15.7851L50.6504 15.5687L53.5801 15.1052H53.6079C53.9252 15.1052 54.279 14.6555 54.279 14.0099V12.8189C54.279 12.1733 53.9252 11.7236 53.6079 11.7236H53.5801L50.6504 11.2616L50.586 11.0451C50.423 10.4975 50.2029 9.96597 49.9317 9.46587L49.8242 9.26773L51.568 6.86812L51.5877 6.84838C51.7347 6.70142 51.7215 6.47038 51.7003 6.34609C51.6564 6.09019 51.5066 5.81747 51.2879 5.59959L50.4457 4.75731C50.2278 4.53943 49.9558 4.38882 49.6992 4.34495C49.5749 4.32374 49.3438 4.30985 49.1969 4.45754L49.1771 4.47728L46.7782 6.22179L46.5801 6.11431C46.08 5.84306 45.5492 5.62372 45.0023 5.46067L44.7859 5.39633L44.3238 2.46664V2.43886C44.3238 2.12154 43.8742 1.76767 43.2286 1.76767H42.0375C41.3919 1.76767 40.9423 2.12154 40.9423 2.43886V2.46737L40.9379 2.49516L40.4787 5.39706L40.2623 5.4614C39.7147 5.62445 39.1831 5.84452 38.683 6.11504L38.4849 6.22252L36.086 4.47802L36.0663 4.45827C35.8418 4.23381 35.2737 4.30181 34.8175 4.75804L33.9752 5.60032C33.7573 5.8182 33.6067 6.09019 33.5628 6.34682C33.5416 6.47111 33.5277 6.70215 33.6754 6.84911L33.6952 6.86885L35.439 9.26846L35.3315 9.4666C35.0602 9.96671 34.8402 10.4975 34.6771 11.0459L34.6128 11.2623L31.6831 11.7244H31.6553C31.338 11.7244 30.9841 12.174 30.9841 12.8196V14.0107C30.9841 14.6563 31.338 15.1059 31.6553 15.1059H31.6831L34.6128 15.5695L34.6771 15.7859C34.8402 16.3335 35.0602 16.865 35.3307 17.3651L35.4382 17.5633L33.6937 19.9622L33.674 19.9819C33.4495 20.2064 33.5175 20.7745 33.9737 21.2307L34.816 22.073C35.2723 22.5292 35.8404 22.5972 36.0648 22.3727L36.0846 22.353L38.4834 20.6078ZM42.6312 18.4677C39.8448 18.4677 37.5783 16.2012 37.5783 13.4148C37.5783 10.6284 39.8448 8.36185 42.6312 8.36185C45.4176 8.36185 47.6841 10.6284 47.6841 13.4148C47.6841 16.2012 45.4176 18.4677 42.6312 18.4677ZM42.6312 9.07764C40.2396 9.07764 38.2941 11.0232 38.2941 13.4148C38.2941 15.8063 40.2396 17.7519 42.6312 17.7519C45.0228 17.7519 46.9683 15.8063 46.9683 13.4148C46.9683 11.0232 45.0228 9.07764 42.6312 9.07764Z"/>
</mask>
<path d="M43.2278 25.7784H42.0368C41.0519 25.7784 40.2484 25.173 40.2265 24.4229L39.8412 21.9882C39.3944 21.8427 38.9587 21.6628 38.5419 21.45L36.5481 22.8992C36.0019 23.4146 35.0061 23.2742 34.3093 22.5775L33.4671 21.7352C32.771 21.0391 32.6306 20.0426 33.1461 19.4964L34.5959 17.5033C34.3839 17.0866 34.2033 16.6515 34.0586 16.2048L31.6246 15.8195C30.8744 15.7976 30.269 14.994 30.269 14.0092V12.8182C30.269 11.8333 30.8744 11.0298 31.6246 11.0079L34.0593 10.6233C34.2048 10.1765 34.3846 9.74151 34.5974 9.32476L33.1483 7.33094C32.8902 7.05749 32.7842 6.65609 32.858 6.22472C32.9275 5.81966 33.1446 5.41826 33.4693 5.09291L34.3115 4.25063C35.0083 3.55458 36.0041 3.4142 36.5503 3.92966L38.5434 5.37951C38.9601 5.16748 39.3952 4.98689 39.8419 4.84212L40.2272 2.40742C40.2484 1.65727 41.0527 1.05188 42.0375 1.05188H43.2286C44.2134 1.05188 45.0169 1.65727 45.0389 2.40742L45.4234 4.84212C45.8694 4.98689 46.3037 5.16748 46.7205 5.37951L48.7136 3.92966C48.987 3.67157 49.3884 3.56555 49.8198 3.63939C50.2249 3.70885 50.6263 3.926 50.9516 4.25063L51.7939 5.09291C52.1193 5.41826 52.3364 5.82039 52.4051 6.22472C52.479 6.65609 52.373 7.05749 52.1149 7.33094L50.6657 9.32476C50.8778 9.74151 51.0584 10.1765 51.2039 10.6233L53.6386 11.0071C54.3887 11.0283 54.9941 11.8326 54.9941 12.8174V14.0085C54.9941 14.9933 54.3887 15.7968 53.6386 15.8188L51.2046 16.2041C51.0598 16.6501 50.8792 17.0858 50.6672 17.5026L52.1171 19.4957C52.6325 20.0419 52.4921 21.0377 51.7961 21.7345L50.9538 22.5767C50.2578 23.2728 49.2612 23.4132 48.715 22.8984L46.7212 21.4493C46.3045 21.6613 45.8694 21.8419 45.4227 21.9874L45.0381 24.4221C45.0169 25.1723 44.2127 25.7777 43.2278 25.7777V25.7784ZM38.4834 20.6078L38.6816 20.7152C39.1817 20.9865 39.7132 21.2066 40.2616 21.3696L40.478 21.434L40.9415 24.3636V24.3922C40.9415 24.7095 41.3912 25.0633 42.0368 25.0633H43.2278C43.8734 25.0633 44.3231 24.7095 44.3231 24.3922V24.3644L44.7852 21.4347L45.0016 21.3703C45.5492 21.2073 46.0807 20.9872 46.5808 20.716L46.779 20.6085L49.1786 22.3523L49.1983 22.372C49.4228 22.5965 49.9909 22.5285 50.4471 22.0722L51.2894 21.23C51.7456 20.7737 51.8136 20.2056 51.5892 19.9812L51.5694 19.9614L49.8249 17.5625L49.9324 17.3644C50.2037 16.8643 50.4237 16.3328 50.586 15.7851L50.6504 15.5687L53.5801 15.1052H53.6079C53.9252 15.1052 54.279 14.6555 54.279 14.0099V12.8189C54.279 12.1733 53.9252 11.7236 53.6079 11.7236H53.5801L50.6504 11.2616L50.586 11.0451C50.423 10.4975 50.2029 9.96597 49.9317 9.46587L49.8242 9.26773L51.568 6.86812L51.5877 6.84838C51.7347 6.70142 51.7215 6.47038 51.7003 6.34609C51.6564 6.09019 51.5066 5.81747 51.2879 5.59959L50.4457 4.75731C50.2278 4.53943 49.9558 4.38882 49.6992 4.34495C49.5749 4.32374 49.3438 4.30985 49.1969 4.45754L49.1771 4.47728L46.7782 6.22179L46.5801 6.11431C46.08 5.84306 45.5492 5.62372 45.0023 5.46067L44.7859 5.39633L44.3238 2.46664V2.43886C44.3238 2.12154 43.8742 1.76767 43.2286 1.76767H42.0375C41.3919 1.76767 40.9423 2.12154 40.9423 2.43886V2.46737L40.9379 2.49516L40.4787 5.39706L40.2623 5.4614C39.7147 5.62445 39.1831 5.84452 38.683 6.11504L38.4849 6.22252L36.086 4.47802L36.0663 4.45827C35.8418 4.23381 35.2737 4.30181 34.8175 4.75804L33.9752 5.60032C33.7573 5.8182 33.6067 6.09019 33.5628 6.34682C33.5416 6.47111 33.5277 6.70215 33.6754 6.84911L33.6952 6.86885L35.439 9.26846L35.3315 9.4666C35.0602 9.96671 34.8402 10.4975 34.6771 11.0459L34.6128 11.2623L31.6831 11.7244H31.6553C31.338 11.7244 30.9841 12.174 30.9841 12.8196V14.0107C30.9841 14.6563 31.338 15.1059 31.6553 15.1059H31.6831L34.6128 15.5695L34.6771 15.7859C34.8402 16.3335 35.0602 16.865 35.3307 17.3651L35.4382 17.5633L33.6937 19.9622L33.674 19.9819C33.4495 20.2064 33.5175 20.7745 33.9737 21.2307L34.816 22.073C35.2723 22.5292 35.8404 22.5972 36.0648 22.3727L36.0846 22.353L38.4834 20.6078ZM42.6312 18.4677C39.8448 18.4677 37.5783 16.2012 37.5783 13.4148C37.5783 10.6284 39.8448 8.36185 42.6312 8.36185C45.4176 8.36185 47.6841 10.6284 47.6841 13.4148C47.6841 16.2012 45.4176 18.4677 42.6312 18.4677ZM42.6312 9.07764C40.2396 9.07764 38.2941 11.0232 38.2941 13.4148C38.2941 15.8063 40.2396 17.7519 42.6312 17.7519C45.0228 17.7519 46.9683 15.8063 46.9683 13.4148C46.9683 11.0232 45.0228 9.07764 42.6312 9.07764Z" fill="#EBC025"/>
<path d="M43.2278 25.7784H42.0368C41.0519 25.7784 40.2484 25.173 40.2265 24.4229L39.8412 21.9882C39.3944 21.8427 38.9587 21.6628 38.5419 21.45L36.5481 22.8992C36.0019 23.4146 35.0061 23.2742 34.3093 22.5775L33.4671 21.7352C32.771 21.0391 32.6306 20.0426 33.1461 19.4964L34.5959 17.5033C34.3839 17.0866 34.2033 16.6515 34.0586 16.2048L31.6246 15.8195C30.8744 15.7976 30.269 14.994 30.269 14.0092V12.8182C30.269 11.8333 30.8744 11.0298 31.6246 11.0079L34.0593 10.6233C34.2048 10.1765 34.3846 9.74151 34.5974 9.32476L33.1483 7.33094C32.8902 7.05749 32.7842 6.65609 32.858 6.22472C32.9275 5.81966 33.1446 5.41826 33.4693 5.09291L34.3115 4.25063C35.0083 3.55458 36.0041 3.4142 36.5503 3.92966L38.5434 5.37951C38.9601 5.16748 39.3952 4.98689 39.8419 4.84212L40.2272 2.40742C40.2484 1.65727 41.0527 1.05188 42.0375 1.05188H43.2286C44.2134 1.05188 45.0169 1.65727 45.0389 2.40742L45.4234 4.84212C45.8694 4.98689 46.3037 5.16748 46.7205 5.37951L48.7136 3.92966C48.987 3.67157 49.3884 3.56555 49.8198 3.63939C50.2249 3.70885 50.6263 3.926 50.9516 4.25063L51.7939 5.09291C52.1193 5.41826 52.3364 5.82039 52.4051 6.22472C52.479 6.65609 52.373 7.05749 52.1149 7.33094L50.6657 9.32476C50.8778 9.74151 51.0584 10.1765 51.2039 10.6233L53.6386 11.0071C54.3887 11.0283 54.9941 11.8326 54.9941 12.8174V14.0085C54.9941 14.9933 54.3887 15.7968 53.6386 15.8188L51.2046 16.2041C51.0598 16.6501 50.8792 17.0858 50.6672 17.5026L52.1171 19.4957C52.6325 20.0419 52.4921 21.0377 51.7961 21.7345L50.9538 22.5767C50.2578 23.2728 49.2612 23.4132 48.715 22.8984L46.7212 21.4493C46.3045 21.6613 45.8694 21.8419 45.4227 21.9874L45.0381 24.4221C45.0169 25.1723 44.2127 25.7777 43.2278 25.7777V25.7784ZM38.4834 20.6078L38.6816 20.7152C39.1817 20.9865 39.7132 21.2066 40.2616 21.3696L40.478 21.434L40.9415 24.3636V24.3922C40.9415 24.7095 41.3912 25.0633 42.0368 25.0633H43.2278C43.8734 25.0633 44.3231 24.7095 44.3231 24.3922V24.3644L44.7852 21.4347L45.0016 21.3703C45.5492 21.2073 46.0807 20.9872 46.5808 20.716L46.779 20.6085L49.1786 22.3523L49.1983 22.372C49.4228 22.5965 49.9909 22.5285 50.4471 22.0722L51.2894 21.23C51.7456 20.7737 51.8136 20.2056 51.5892 19.9812L51.5694 19.9614L49.8249 17.5625L49.9324 17.3644C50.2037 16.8643 50.4237 16.3328 50.586 15.7851L50.6504 15.5687L53.5801 15.1052H53.6079C53.9252 15.1052 54.279 14.6555 54.279 14.0099V12.8189C54.279 12.1733 53.9252 11.7236 53.6079 11.7236H53.5801L50.6504 11.2616L50.586 11.0451C50.423 10.4975 50.2029 9.96597 49.9317 9.46587L49.8242 9.26773L51.568 6.86812L51.5877 6.84838C51.7347 6.70142 51.7215 6.47038 51.7003 6.34609C51.6564 6.09019 51.5066 5.81747 51.2879 5.59959L50.4457 4.75731C50.2278 4.53943 49.9558 4.38882 49.6992 4.34495C49.5749 4.32374 49.3438 4.30985 49.1969 4.45754L49.1771 4.47728L46.7782 6.22179L46.5801 6.11431C46.08 5.84306 45.5492 5.62372 45.0023 5.46067L44.7859 5.39633L44.3238 2.46664V2.43886C44.3238 2.12154 43.8742 1.76767 43.2286 1.76767H42.0375C41.3919 1.76767 40.9423 2.12154 40.9423 2.43886V2.46737L40.9379 2.49516L40.4787 5.39706L40.2623 5.4614C39.7147 5.62445 39.1831 5.84452 38.683 6.11504L38.4849 6.22252L36.086 4.47802L36.0663 4.45827C35.8418 4.23381 35.2737 4.30181 34.8175 4.75804L33.9752 5.60032C33.7573 5.8182 33.6067 6.09019 33.5628 6.34682C33.5416 6.47111 33.5277 6.70215 33.6754 6.84911L33.6952 6.86885L35.439 9.26846L35.3315 9.4666C35.0602 9.96671 34.8402 10.4975 34.6771 11.0459L34.6128 11.2623L31.6831 11.7244H31.6553C31.338 11.7244 30.9841 12.174 30.9841 12.8196V14.0107C30.9841 14.6563 31.338 15.1059 31.6553 15.1059H31.6831L34.6128 15.5695L34.6771 15.7859C34.8402 16.3335 35.0602 16.865 35.3307 17.3651L35.4382 17.5633L33.6937 19.9622L33.674 19.9819C33.4495 20.2064 33.5175 20.7745 33.9737 21.2307L34.816 22.073C35.2723 22.5292 35.8404 22.5972 36.0648 22.3727L36.0846 22.353L38.4834 20.6078ZM42.6312 18.4677C39.8448 18.4677 37.5783 16.2012 37.5783 13.4148C37.5783 10.6284 39.8448 8.36185 42.6312 8.36185C45.4176 8.36185 47.6841 10.6284 47.6841 13.4148C47.6841 16.2012 45.4176 18.4677 42.6312 18.4677ZM42.6312 9.07764C40.2396 9.07764 38.2941 11.0232 38.2941 13.4148C38.2941 15.8063 40.2396 17.7519 42.6312 17.7519C45.0228 17.7519 46.9683 15.8063 46.9683 13.4148C46.9683 11.0232 45.0228 9.07764 42.6312 9.07764Z" stroke="#EBC025" stroke-width="1.2" mask="url(#path-1-outside-1_266_508)"/>
<mask id="path-2-outside-2_266_508" maskUnits="userSpaceOnUse" x="0.0510254" y="0.0511475" width="56" height="56" fill="black">
<rect fill="white" x="0.0510254" y="0.0511475" width="56" height="56"/>
<path d="M29.3477 54.9993H26.7076C24.7444 54.9993 23.1447 53.8287 23.1228 52.384L22.2227 46.6993C21.0829 46.3455 19.9752 45.887 18.9238 45.3328L14.2679 48.7158C13.2304 49.7219 11.2717 49.4184 9.88323 48.03L8.01589 46.1627C6.62745 44.7742 6.32403 42.8155 7.33008 41.778L10.716 37.1235C10.1625 36.0722 9.7041 34.9652 9.35096 33.8268L3.66632 32.9268C2.22159 32.9049 1.05103 31.3051 1.05103 29.342V26.7018C1.05103 24.7387 2.22159 23.139 3.66632 23.117L9.35169 22.2199C9.70556 21.0815 10.164 19.9746 10.7175 18.9232L7.33447 14.2673C6.8351 13.7526 6.63988 13.0061 6.78392 12.1616C6.9221 11.3508 7.36152 10.5421 8.02028 9.88336L9.88762 8.01602C11.2761 6.62757 13.2348 6.32415 14.2723 7.3302L18.9267 10.7161C19.9781 10.1627 21.0851 9.70422 22.2235 9.35108L23.1235 3.66645C23.1454 2.22171 24.7452 1.05115 26.7083 1.05115H28.3607V17.9844H27.9958C22.4757 18.0012 17.985 22.5051 17.985 28.0252C17.985 33.5453 22.4889 38.0653 28.0251 38.0653C33.5613 38.0653 38.0571 33.568 38.0651 28.0398V27.675H54.9991V29.3427C54.9991 31.3058 53.8286 32.9056 52.3838 32.9275L46.6992 33.8276C46.3461 34.966 45.8876 36.0729 45.3342 37.1243L48.7193 41.7787C49.7254 42.8162 49.422 44.775 48.0335 46.1634L46.1662 48.0307C44.7778 49.4192 42.819 49.7226 41.7815 48.7165L37.1256 45.3336C36.0742 45.887 34.968 46.3455 33.8289 46.6993L32.9318 52.3847C32.9098 53.8294 31.3101 55 29.347 55L29.3477 54.9993ZM18.8653 44.4708L19.0678 44.5805C20.2026 45.1961 21.409 45.6955 22.6519 46.0647L22.8727 46.1305L23.8532 52.324V52.3525C23.8532 53.39 25.1605 54.2674 26.7076 54.2674H29.3477C30.8948 54.2674 32.2021 53.3908 32.2021 52.3525V52.324L32.2065 52.2955L33.1796 46.1298L33.4004 46.064C34.6427 45.694 35.8476 45.1954 36.9823 44.5797L37.1848 44.4701L42.2575 48.1565L42.278 48.177C43.012 48.911 44.5562 48.6069 45.65 47.5124L47.5173 45.645C48.6111 44.5512 48.9153 43.0071 48.182 42.273L48.1615 42.2525L48.1447 42.2291L44.4729 37.1813L44.5825 36.9788C45.1974 35.844 45.6968 34.6391 46.066 33.3969L46.1318 33.1761L52.3253 32.1956H52.3539C53.3913 32.1956 54.2687 30.8884 54.2687 29.3413V28.4047H38.7904C38.5894 34.1675 33.8347 38.7949 28.0258 38.7949C22.2169 38.7949 17.2546 33.9628 17.2546 28.0237C17.2546 25.1518 18.3711 22.451 20.3993 20.4177C22.3404 18.4714 24.8958 17.3578 27.6303 17.2599V1.78229H26.709C25.1619 1.78229 23.8546 2.65893 23.8546 3.69715V3.72567L22.8742 9.91918L22.6534 9.98498C21.4112 10.3542 20.2062 10.8536 19.0715 11.4685L18.869 11.5781L13.7978 7.88953L13.7773 7.86906C13.0432 7.13499 11.4991 7.43914 10.4053 8.53366L8.53793 10.401C7.98518 10.9537 7.61888 11.6227 7.50556 12.2859C7.40027 12.9022 7.53114 13.4309 7.87332 13.773L7.89379 13.7935L11.5802 18.8662L11.4705 19.0687C10.8557 20.2027 10.3563 21.4084 9.98705 22.6498L9.92125 22.8706L3.72701 23.8482H3.69849C2.661 23.8482 1.78363 25.1555 1.78363 26.7026V29.3427C1.78363 30.8898 2.66027 32.1971 3.69849 32.1971H3.72701L9.92052 33.1776L9.98632 33.3984C10.3555 34.6406 10.8549 35.8455 11.4698 36.9802L11.5795 37.1828L7.89087 42.254L7.87039 42.2745C7.13633 43.0085 7.44048 44.5527 8.535 45.6465L10.4023 47.5138C11.4961 48.6076 13.0403 48.9118 13.7744 48.1784L13.7948 48.158L18.8653 44.4708Z"/>
</mask>
<path d="M29.3477 54.9993H26.7076C24.7444 54.9993 23.1447 53.8287 23.1228 52.384L22.2227 46.6993C21.0829 46.3455 19.9752 45.887 18.9238 45.3328L14.2679 48.7158C13.2304 49.7219 11.2717 49.4184 9.88323 48.03L8.01589 46.1627C6.62745 44.7742 6.32403 42.8155 7.33008 41.778L10.716 37.1235C10.1625 36.0722 9.7041 34.9652 9.35096 33.8268L3.66632 32.9268C2.22159 32.9049 1.05103 31.3051 1.05103 29.342V26.7018C1.05103 24.7387 2.22159 23.139 3.66632 23.117L9.35169 22.2199C9.70556 21.0815 10.164 19.9746 10.7175 18.9232L7.33447 14.2673C6.8351 13.7526 6.63988 13.0061 6.78392 12.1616C6.9221 11.3508 7.36152 10.5421 8.02028 9.88336L9.88762 8.01602C11.2761 6.62757 13.2348 6.32415 14.2723 7.3302L18.9267 10.7161C19.9781 10.1627 21.0851 9.70422 22.2235 9.35108L23.1235 3.66645C23.1454 2.22171 24.7452 1.05115 26.7083 1.05115H28.3607V17.9844H27.9958C22.4757 18.0012 17.985 22.5051 17.985 28.0252C17.985 33.5453 22.4889 38.0653 28.0251 38.0653C33.5613 38.0653 38.0571 33.568 38.0651 28.0398V27.675H54.9991V29.3427C54.9991 31.3058 53.8286 32.9056 52.3838 32.9275L46.6992 33.8276C46.3461 34.966 45.8876 36.0729 45.3342 37.1243L48.7193 41.7787C49.7254 42.8162 49.422 44.775 48.0335 46.1634L46.1662 48.0307C44.7778 49.4192 42.819 49.7226 41.7815 48.7165L37.1256 45.3336C36.0742 45.887 34.968 46.3455 33.8289 46.6993L32.9318 52.3847C32.9098 53.8294 31.3101 55 29.347 55L29.3477 54.9993ZM18.8653 44.4708L19.0678 44.5805C20.2026 45.1961 21.409 45.6955 22.6519 46.0647L22.8727 46.1305L23.8532 52.324V52.3525C23.8532 53.39 25.1605 54.2674 26.7076 54.2674H29.3477C30.8948 54.2674 32.2021 53.3908 32.2021 52.3525V52.324L32.2065 52.2955L33.1796 46.1298L33.4004 46.064C34.6427 45.694 35.8476 45.1954 36.9823 44.5797L37.1848 44.4701L42.2575 48.1565L42.278 48.177C43.012 48.911 44.5562 48.6069 45.65 47.5124L47.5173 45.645C48.6111 44.5512 48.9153 43.0071 48.182 42.273L48.1615 42.2525L48.1447 42.2291L44.4729 37.1813L44.5825 36.9788C45.1974 35.844 45.6968 34.6391 46.066 33.3969L46.1318 33.1761L52.3253 32.1956H52.3539C53.3913 32.1956 54.2687 30.8884 54.2687 29.3413V28.4047H38.7904C38.5894 34.1675 33.8347 38.7949 28.0258 38.7949C22.2169 38.7949 17.2546 33.9628 17.2546 28.0237C17.2546 25.1518 18.3711 22.451 20.3993 20.4177C22.3404 18.4714 24.8958 17.3578 27.6303 17.2599V1.78229H26.709C25.1619 1.78229 23.8546 2.65893 23.8546 3.69715V3.72567L22.8742 9.91918L22.6534 9.98498C21.4112 10.3542 20.2062 10.8536 19.0715 11.4685L18.869 11.5781L13.7978 7.88953L13.7773 7.86906C13.0432 7.13499 11.4991 7.43914 10.4053 8.53366L8.53793 10.401C7.98518 10.9537 7.61888 11.6227 7.50556 12.2859C7.40027 12.9022 7.53114 13.4309 7.87332 13.773L7.89379 13.7935L11.5802 18.8662L11.4705 19.0687C10.8557 20.2027 10.3563 21.4084 9.98705 22.6498L9.92125 22.8706L3.72701 23.8482H3.69849C2.661 23.8482 1.78363 25.1555 1.78363 26.7026V29.3427C1.78363 30.8898 2.66027 32.1971 3.69849 32.1971H3.72701L9.92052 33.1776L9.98632 33.3984C10.3555 34.6406 10.8549 35.8455 11.4698 36.9802L11.5795 37.1828L7.89087 42.254L7.87039 42.2745C7.13633 43.0085 7.44048 44.5527 8.535 45.6465L10.4023 47.5138C11.4961 48.6076 13.0403 48.9118 13.7744 48.1784L13.7948 48.158L18.8653 44.4708Z" fill="#EB8125"/>
<path d="M29.3477 54.9993H26.7076C24.7444 54.9993 23.1447 53.8287 23.1228 52.384L22.2227 46.6993C21.0829 46.3455 19.9752 45.887 18.9238 45.3328L14.2679 48.7158C13.2304 49.7219 11.2717 49.4184 9.88323 48.03L8.01589 46.1627C6.62745 44.7742 6.32403 42.8155 7.33008 41.778L10.716 37.1235C10.1625 36.0722 9.7041 34.9652 9.35096 33.8268L3.66632 32.9268C2.22159 32.9049 1.05103 31.3051 1.05103 29.342V26.7018C1.05103 24.7387 2.22159 23.139 3.66632 23.117L9.35169 22.2199C9.70556 21.0815 10.164 19.9746 10.7175 18.9232L7.33447 14.2673C6.8351 13.7526 6.63988 13.0061 6.78392 12.1616C6.9221 11.3508 7.36152 10.5421 8.02028 9.88336L9.88762 8.01602C11.2761 6.62757 13.2348 6.32415 14.2723 7.3302L18.9267 10.7161C19.9781 10.1627 21.0851 9.70422 22.2235 9.35108L23.1235 3.66645C23.1454 2.22171 24.7452 1.05115 26.7083 1.05115H28.3607V17.9844H27.9958C22.4757 18.0012 17.985 22.5051 17.985 28.0252C17.985 33.5453 22.4889 38.0653 28.0251 38.0653C33.5613 38.0653 38.0571 33.568 38.0651 28.0398V27.675H54.9991V29.3427C54.9991 31.3058 53.8286 32.9056 52.3838 32.9275L46.6992 33.8276C46.3461 34.966 45.8876 36.0729 45.3342 37.1243L48.7193 41.7787C49.7254 42.8162 49.422 44.775 48.0335 46.1634L46.1662 48.0307C44.7778 49.4192 42.819 49.7226 41.7815 48.7165L37.1256 45.3336C36.0742 45.887 34.968 46.3455 33.8289 46.6993L32.9318 52.3847C32.9098 53.8294 31.3101 55 29.347 55L29.3477 54.9993ZM18.8653 44.4708L19.0678 44.5805C20.2026 45.1961 21.409 45.6955 22.6519 46.0647L22.8727 46.1305L23.8532 52.324V52.3525C23.8532 53.39 25.1605 54.2674 26.7076 54.2674H29.3477C30.8948 54.2674 32.2021 53.3908 32.2021 52.3525V52.324L32.2065 52.2955L33.1796 46.1298L33.4004 46.064C34.6427 45.694 35.8476 45.1954 36.9823 44.5797L37.1848 44.4701L42.2575 48.1565L42.278 48.177C43.012 48.911 44.5562 48.6069 45.65 47.5124L47.5173 45.645C48.6111 44.5512 48.9153 43.0071 48.182 42.273L48.1615 42.2525L48.1447 42.2291L44.4729 37.1813L44.5825 36.9788C45.1974 35.844 45.6968 34.6391 46.066 33.3969L46.1318 33.1761L52.3253 32.1956H52.3539C53.3913 32.1956 54.2687 30.8884 54.2687 29.3413V28.4047H38.7904C38.5894 34.1675 33.8347 38.7949 28.0258 38.7949C22.2169 38.7949 17.2546 33.9628 17.2546 28.0237C17.2546 25.1518 18.3711 22.451 20.3993 20.4177C22.3404 18.4714 24.8958 17.3578 27.6303 17.2599V1.78229H26.709C25.1619 1.78229 23.8546 2.65893 23.8546 3.69715V3.72567L22.8742 9.91918L22.6534 9.98498C21.4112 10.3542 20.2062 10.8536 19.0715 11.4685L18.869 11.5781L13.7978 7.88953L13.7773 7.86906C13.0432 7.13499 11.4991 7.43914 10.4053 8.53366L8.53793 10.401C7.98518 10.9537 7.61888 11.6227 7.50556 12.2859C7.40027 12.9022 7.53114 13.4309 7.87332 13.773L7.89379 13.7935L11.5802 18.8662L11.4705 19.0687C10.8557 20.2027 10.3563 21.4084 9.98705 22.6498L9.92125 22.8706L3.72701 23.8482H3.69849C2.661 23.8482 1.78363 25.1555 1.78363 26.7026V29.3427C1.78363 30.8898 2.66027 32.1971 3.69849 32.1971H3.72701L9.92052 33.1776L9.98632 33.3984C10.3555 34.6406 10.8549 35.8455 11.4698 36.9802L11.5795 37.1828L7.89087 42.254L7.87039 42.2745C7.13633 43.0085 7.44048 44.5527 8.535 45.6465L10.4023 47.5138C11.4961 48.6076 13.0403 48.9118 13.7744 48.1784L13.7948 48.158L18.8653 44.4708Z" stroke="#EB8125" stroke-width="1.2" mask="url(#path-2-outside-2_266_508)"/>
</svg>
