<svg width="71" height="61" viewBox="0 0 71 61" fill="none" xmlns="http://www.w3.org/2000/svg">
<path d="M55.4093 44.4963V46.1008H9.50305V44.4963H55.4093Z" fill="#EB8125" stroke="#EB8125" stroke-width="0.6"/>
<path d="M26.4777 50.5989V56.6262H24.8732V50.5989H26.4777Z" fill="#EB8125" stroke="#EB8125" stroke-width="0.6"/>
<path d="M40.1198 50.5989V56.6262H38.5153V50.5989H40.1198Z" fill="#EB8125" stroke="#EB8125" stroke-width="0.6"/>
<path d="M42.7544 55.0973C43.4693 55.0975 44.0492 55.6773 44.0493 56.3922C44.0493 56.5385 44.0257 56.7651 43.8315 56.8883C43.7378 56.9477 43.6398 56.9577 43.5669 56.9547C43.4956 56.9518 43.4281 56.935 43.3745 56.9196C43.3197 56.9037 43.2616 56.8838 43.2104 56.8658C43.1567 56.8469 43.106 56.8284 43.0532 56.8121C42.9475 56.7796 42.8489 56.7585 42.7544 56.7584H22.1577C22.0631 56.7584 21.9647 56.7795 21.8589 56.8121C21.806 56.8284 21.7546 56.8469 21.7007 56.8658C21.6497 56.8838 21.5922 56.9038 21.5376 56.9196C21.4841 56.935 21.4164 56.9517 21.3452 56.9547C21.2722 56.9577 21.1735 56.9479 21.0796 56.8883C20.8856 56.765 20.8628 56.5385 20.8628 56.3922C20.8629 55.6772 21.4427 55.0974 22.1577 55.0973H42.7544Z" fill="#EB8125" stroke="#EB8125" stroke-width="0.6"/>
<mask id="path-5-outside-1_266_530" maskUnits="userSpaceOnUse" x="38.6293" y="0.176636" width="32" height="32" fill="black">
<rect fill="white" x="38.6293" y="0.176636" width="32" height="32"/>
<path d="M55.258 30.9929H53.8209C52.6334 30.9929 51.6643 30.2633 51.6381 29.3586L51.1732 26.423C50.6348 26.2479 50.1094 26.0306 49.6063 25.7739L47.2021 27.521C46.5439 28.1429 45.3423 27.9728 44.502 27.1335L43.4866 26.1181C42.6473 25.2788 42.4773 24.0772 43.0992 23.4191L44.8472 21.0149C44.5916 20.5117 44.3742 19.9874 44.1991 19.449L41.2636 18.9841C40.3589 18.9579 39.6293 17.9888 39.6293 16.8013V15.3642C39.6293 14.1767 40.3589 13.2076 41.2646 13.1814L44.2001 12.7185C44.3752 12.1801 44.5926 11.6558 44.8492 11.1526L43.1022 8.74844C42.7912 8.41836 42.6634 7.9343 42.752 7.41402C42.8355 6.92594 43.0972 6.44087 43.4896 6.0494L44.5051 5.03399C45.3454 4.19469 46.547 4.02462 47.2051 4.64654L49.6093 6.39458C50.1125 6.13796 50.6368 5.92159 51.1752 5.74649L51.6401 2.81095C51.6663 1.90624 52.6354 1.17664 53.8229 1.17664H55.26C56.4475 1.17664 57.4166 1.90624 57.4427 2.81196L57.9057 5.7485C58.4431 5.92361 58.9674 6.14098 59.4695 6.39659L61.8737 4.64856C62.2038 4.33659 62.6879 4.20979 63.2082 4.29835C63.6962 4.38187 64.1813 4.64352 64.5728 5.036L65.5882 6.05141C65.9807 6.44389 66.2423 6.92795 66.3258 7.41603C66.4144 7.93632 66.2876 8.42037 65.9756 8.75046L64.2286 11.1546C64.4842 11.6568 64.7026 12.1821 64.8777 12.7205L67.8132 13.1834C68.7179 13.2096 69.4486 14.1787 69.4486 15.3662V16.8033C69.4486 17.9908 68.7189 18.9599 67.8142 18.9861L64.8787 19.451C64.7036 19.9894 64.4862 20.5137 64.2306 21.0169L65.9786 23.4211C66.6006 24.0792 66.4305 25.2808 65.5912 26.1211L64.5758 27.1365C63.7365 27.9758 62.5349 28.1449 61.8757 27.524L59.4716 25.777C58.9684 26.0336 58.4441 26.251 57.9057 26.4251L57.4427 29.3616C57.4166 30.2663 56.4475 30.9969 55.26 30.9969L55.258 30.9929ZM49.5368 24.7575L49.7763 24.8873C50.3792 25.2144 51.0202 25.4801 51.6814 25.6763L51.942 25.7538L52.5015 29.2861V29.3203C52.5015 29.7028 53.044 30.1294 53.8219 30.1294H55.259C56.0369 30.1294 56.5793 29.7028 56.5793 29.3203V29.2861L57.1368 25.7528L57.3975 25.6753C58.0576 25.4791 58.6987 25.2134 59.3015 24.8863L59.541 24.7565L62.4343 26.8588L62.4584 26.8829C62.7291 27.1537 63.4145 27.0721 63.9639 26.5217L64.9793 25.5063C65.5298 24.9558 65.6113 24.2715 65.3406 24.0007L65.3165 23.9766L63.2122 21.0833L63.342 20.8438C63.6691 20.241 63.9347 19.6 64.131 18.9398L64.2085 18.6791L67.7418 18.1196H67.776C68.1584 18.1196 68.5851 17.5772 68.5851 16.7993V15.3622C68.5851 14.5843 68.1584 14.0419 67.776 14.0419H67.7418L64.2085 13.4843L64.131 13.2237C63.9347 12.5625 63.6691 11.9225 63.342 11.3197L63.2122 11.0802L65.3144 8.1869L65.3386 8.16275C65.5157 7.98563 65.4996 7.70687 65.4745 7.55692C65.4211 7.24797 65.241 6.9199 64.9773 6.65724L63.9619 5.64183C63.6993 5.37917 63.3712 5.19803 63.0622 5.14469C62.9123 5.11953 62.6345 5.10242 62.4564 5.28055L62.4323 5.3047L59.539 7.40899L59.2995 7.27917C58.6967 6.9521 58.0566 6.68743 57.3965 6.49119L57.1358 6.4137L56.5783 2.88039V2.84618C56.5783 2.46376 56.0359 2.03707 55.258 2.03707H53.8209C53.043 2.03707 52.5005 2.46376 52.5005 2.84618V2.88039L52.4955 2.9136L51.941 6.4127L51.6804 6.49018C51.0202 6.68642 50.3792 6.9521 49.7763 7.27917L49.5368 7.40899L46.6436 5.3047L46.6194 5.28055C46.3487 5.00984 45.6634 5.09135 45.1139 5.64183L44.0985 6.65724C43.8358 6.9199 43.6547 7.24797 43.6014 7.55692C43.5762 7.70687 43.5591 7.98462 43.7372 8.16275L43.7614 8.1869L45.8636 11.0802L45.7338 11.3197C45.4068 11.9225 45.1421 12.5635 44.9448 13.2237L44.8673 13.4843L41.334 14.0419H41.2998C40.9174 14.0419 40.4907 14.5843 40.4907 15.3622V16.7993C40.4907 17.5772 40.9174 18.1196 41.2998 18.1196H41.334L44.8673 18.6791L44.9448 18.9398C45.1411 19.6 45.4068 20.241 45.7338 20.8438L45.8636 21.0833L43.7594 23.9766L43.7352 24.0007C43.4645 24.2715 43.547 24.9568 44.0965 25.5063L45.1119 26.5217C45.6624 27.0721 46.3467 27.1537 46.6174 26.8829L46.6415 26.8588L49.5348 24.7565L49.5368 24.7575ZM54.5384 22.1762C51.1782 22.1762 48.4449 19.443 48.4449 16.0828C48.4449 12.7225 51.1782 9.98928 54.5384 9.98928C57.8986 9.98928 60.6319 12.7225 60.6319 16.0828C60.6319 19.443 57.8986 22.1762 54.5384 22.1762ZM54.5384 10.8527C51.6542 10.8527 49.3084 13.1995 49.3084 16.0828C49.3084 18.966 51.6552 21.3128 54.5384 21.3128C57.4216 21.3128 59.7694 18.966 59.7694 16.0828C59.7694 13.1995 57.4226 10.8527 54.5384 10.8527Z"/>
</mask>
<path d="M55.258 30.9929H53.8209C52.6334 30.9929 51.6643 30.2633 51.6381 29.3586L51.1732 26.423C50.6348 26.2479 50.1094 26.0306 49.6063 25.7739L47.2021 27.521C46.5439 28.1429 45.3423 27.9728 44.502 27.1335L43.4866 26.1181C42.6473 25.2788 42.4773 24.0772 43.0992 23.4191L44.8472 21.0149C44.5916 20.5117 44.3742 19.9874 44.1991 19.449L41.2636 18.9841C40.3589 18.9579 39.6293 17.9888 39.6293 16.8013V15.3642C39.6293 14.1767 40.3589 13.2076 41.2646 13.1814L44.2001 12.7185C44.3752 12.1801 44.5926 11.6558 44.8492 11.1526L43.1022 8.74844C42.7912 8.41836 42.6634 7.9343 42.752 7.41402C42.8355 6.92594 43.0972 6.44087 43.4896 6.0494L44.5051 5.03399C45.3454 4.19469 46.547 4.02462 47.2051 4.64654L49.6093 6.39458C50.1125 6.13796 50.6368 5.92159 51.1752 5.74649L51.6401 2.81095C51.6663 1.90624 52.6354 1.17664 53.8229 1.17664H55.26C56.4475 1.17664 57.4166 1.90624 57.4427 2.81196L57.9057 5.7485C58.4431 5.92361 58.9674 6.14098 59.4695 6.39659L61.8737 4.64856C62.2038 4.33659 62.6879 4.20979 63.2082 4.29835C63.6962 4.38187 64.1813 4.64352 64.5728 5.036L65.5882 6.05141C65.9807 6.44389 66.2423 6.92795 66.3258 7.41603C66.4144 7.93632 66.2876 8.42037 65.9756 8.75046L64.2286 11.1546C64.4842 11.6568 64.7026 12.1821 64.8777 12.7205L67.8132 13.1834C68.7179 13.2096 69.4486 14.1787 69.4486 15.3662V16.8033C69.4486 17.9908 68.7189 18.9599 67.8142 18.9861L64.8787 19.451C64.7036 19.9894 64.4862 20.5137 64.2306 21.0169L65.9786 23.4211C66.6006 24.0792 66.4305 25.2808 65.5912 26.1211L64.5758 27.1365C63.7365 27.9758 62.5349 28.1449 61.8757 27.524L59.4716 25.777C58.9684 26.0336 58.4441 26.251 57.9057 26.4251L57.4427 29.3616C57.4166 30.2663 56.4475 30.9969 55.26 30.9969L55.258 30.9929ZM49.5368 24.7575L49.7763 24.8873C50.3792 25.2144 51.0202 25.4801 51.6814 25.6763L51.942 25.7538L52.5015 29.2861V29.3203C52.5015 29.7028 53.044 30.1294 53.8219 30.1294H55.259C56.0369 30.1294 56.5793 29.7028 56.5793 29.3203V29.2861L57.1368 25.7528L57.3975 25.6753C58.0576 25.4791 58.6987 25.2134 59.3015 24.8863L59.541 24.7565L62.4343 26.8588L62.4584 26.8829C62.7291 27.1537 63.4145 27.0721 63.9639 26.5217L64.9793 25.5063C65.5298 24.9558 65.6113 24.2715 65.3406 24.0007L65.3165 23.9766L63.2122 21.0833L63.342 20.8438C63.6691 20.241 63.9347 19.6 64.131 18.9398L64.2085 18.6791L67.7418 18.1196H67.776C68.1584 18.1196 68.5851 17.5772 68.5851 16.7993V15.3622C68.5851 14.5843 68.1584 14.0419 67.776 14.0419H67.7418L64.2085 13.4843L64.131 13.2237C63.9347 12.5625 63.6691 11.9225 63.342 11.3197L63.2122 11.0802L65.3144 8.1869L65.3386 8.16275C65.5157 7.98563 65.4996 7.70687 65.4745 7.55692C65.4211 7.24797 65.241 6.9199 64.9773 6.65724L63.9619 5.64183C63.6993 5.37917 63.3712 5.19803 63.0622 5.14469C62.9123 5.11953 62.6345 5.10242 62.4564 5.28055L62.4323 5.3047L59.539 7.40899L59.2995 7.27917C58.6967 6.9521 58.0566 6.68743 57.3965 6.49119L57.1358 6.4137L56.5783 2.88039V2.84618C56.5783 2.46376 56.0359 2.03707 55.258 2.03707H53.8209C53.043 2.03707 52.5005 2.46376 52.5005 2.84618V2.88039L52.4955 2.9136L51.941 6.4127L51.6804 6.49018C51.0202 6.68642 50.3792 6.9521 49.7763 7.27917L49.5368 7.40899L46.6436 5.3047L46.6194 5.28055C46.3487 5.00984 45.6634 5.09135 45.1139 5.64183L44.0985 6.65724C43.8358 6.9199 43.6547 7.24797 43.6014 7.55692C43.5762 7.70687 43.5591 7.98462 43.7372 8.16275L43.7614 8.1869L45.8636 11.0802L45.7338 11.3197C45.4068 11.9225 45.1421 12.5635 44.9448 13.2237L44.8673 13.4843L41.334 14.0419H41.2998C40.9174 14.0419 40.4907 14.5843 40.4907 15.3622V16.7993C40.4907 17.5772 40.9174 18.1196 41.2998 18.1196H41.334L44.8673 18.6791L44.9448 18.9398C45.1411 19.6 45.4068 20.241 45.7338 20.8438L45.8636 21.0833L43.7594 23.9766L43.7352 24.0007C43.4645 24.2715 43.547 24.9568 44.0965 25.5063L45.1119 26.5217C45.6624 27.0721 46.3467 27.1537 46.6174 26.8829L46.6415 26.8588L49.5348 24.7565L49.5368 24.7575ZM54.5384 22.1762C51.1782 22.1762 48.4449 19.443 48.4449 16.0828C48.4449 12.7225 51.1782 9.98928 54.5384 9.98928C57.8986 9.98928 60.6319 12.7225 60.6319 16.0828C60.6319 19.443 57.8986 22.1762 54.5384 22.1762ZM54.5384 10.8527C51.6542 10.8527 49.3084 13.1995 49.3084 16.0828C49.3084 18.966 51.6552 21.3128 54.5384 21.3128C57.4216 21.3128 59.7694 18.966 59.7694 16.0828C59.7694 13.1995 57.4226 10.8527 54.5384 10.8527Z" fill="#EBC025"/>
<path d="M55.258 30.9929H53.8209C52.6334 30.9929 51.6643 30.2633 51.6381 29.3586L51.1732 26.423C50.6348 26.2479 50.1094 26.0306 49.6063 25.7739L47.2021 27.521C46.5439 28.1429 45.3423 27.9728 44.502 27.1335L43.4866 26.1181C42.6473 25.2788 42.4773 24.0772 43.0992 23.4191L44.8472 21.0149C44.5916 20.5117 44.3742 19.9874 44.1991 19.449L41.2636 18.9841C40.3589 18.9579 39.6293 17.9888 39.6293 16.8013V15.3642C39.6293 14.1767 40.3589 13.2076 41.2646 13.1814L44.2001 12.7185C44.3752 12.1801 44.5926 11.6558 44.8492 11.1526L43.1022 8.74844C42.7912 8.41836 42.6634 7.9343 42.752 7.41402C42.8355 6.92594 43.0972 6.44087 43.4896 6.0494L44.5051 5.03399C45.3454 4.19469 46.547 4.02462 47.2051 4.64654L49.6093 6.39458C50.1125 6.13796 50.6368 5.92159 51.1752 5.74649L51.6401 2.81095C51.6663 1.90624 52.6354 1.17664 53.8229 1.17664H55.26C56.4475 1.17664 57.4166 1.90624 57.4427 2.81196L57.9057 5.7485C58.4431 5.92361 58.9674 6.14098 59.4695 6.39659L61.8737 4.64856C62.2038 4.33659 62.6879 4.20979 63.2082 4.29835C63.6962 4.38187 64.1813 4.64352 64.5728 5.036L65.5882 6.05141C65.9807 6.44389 66.2423 6.92795 66.3258 7.41603C66.4144 7.93632 66.2876 8.42037 65.9756 8.75046L64.2286 11.1546C64.4842 11.6568 64.7026 12.1821 64.8777 12.7205L67.8132 13.1834C68.7179 13.2096 69.4486 14.1787 69.4486 15.3662V16.8033C69.4486 17.9908 68.7189 18.9599 67.8142 18.9861L64.8787 19.451C64.7036 19.9894 64.4862 20.5137 64.2306 21.0169L65.9786 23.4211C66.6006 24.0792 66.4305 25.2808 65.5912 26.1211L64.5758 27.1365C63.7365 27.9758 62.5349 28.1449 61.8757 27.524L59.4716 25.777C58.9684 26.0336 58.4441 26.251 57.9057 26.4251L57.4427 29.3616C57.4166 30.2663 56.4475 30.9969 55.26 30.9969L55.258 30.9929ZM49.5368 24.7575L49.7763 24.8873C50.3792 25.2144 51.0202 25.4801 51.6814 25.6763L51.942 25.7538L52.5015 29.2861V29.3203C52.5015 29.7028 53.044 30.1294 53.8219 30.1294H55.259C56.0369 30.1294 56.5793 29.7028 56.5793 29.3203V29.2861L57.1368 25.7528L57.3975 25.6753C58.0576 25.4791 58.6987 25.2134 59.3015 24.8863L59.541 24.7565L62.4343 26.8588L62.4584 26.8829C62.7291 27.1537 63.4145 27.0721 63.9639 26.5217L64.9793 25.5063C65.5298 24.9558 65.6113 24.2715 65.3406 24.0007L65.3165 23.9766L63.2122 21.0833L63.342 20.8438C63.6691 20.241 63.9347 19.6 64.131 18.9398L64.2085 18.6791L67.7418 18.1196H67.776C68.1584 18.1196 68.5851 17.5772 68.5851 16.7993V15.3622C68.5851 14.5843 68.1584 14.0419 67.776 14.0419H67.7418L64.2085 13.4843L64.131 13.2237C63.9347 12.5625 63.6691 11.9225 63.342 11.3197L63.2122 11.0802L65.3144 8.1869L65.3386 8.16275C65.5157 7.98563 65.4996 7.70687 65.4745 7.55692C65.4211 7.24797 65.241 6.9199 64.9773 6.65724L63.9619 5.64183C63.6993 5.37917 63.3712 5.19803 63.0622 5.14469C62.9123 5.11953 62.6345 5.10242 62.4564 5.28055L62.4323 5.3047L59.539 7.40899L59.2995 7.27917C58.6967 6.9521 58.0566 6.68743 57.3965 6.49119L57.1358 6.4137L56.5783 2.88039V2.84618C56.5783 2.46376 56.0359 2.03707 55.258 2.03707H53.8209C53.043 2.03707 52.5005 2.46376 52.5005 2.84618V2.88039L52.4955 2.9136L51.941 6.4127L51.6804 6.49018C51.0202 6.68642 50.3792 6.9521 49.7763 7.27917L49.5368 7.40899L46.6436 5.3047L46.6194 5.28055C46.3487 5.00984 45.6634 5.09135 45.1139 5.64183L44.0985 6.65724C43.8358 6.9199 43.6547 7.24797 43.6014 7.55692C43.5762 7.70687 43.5591 7.98462 43.7372 8.16275L43.7614 8.1869L45.8636 11.0802L45.7338 11.3197C45.4068 11.9225 45.1421 12.5635 44.9448 13.2237L44.8673 13.4843L41.334 14.0419H41.2998C40.9174 14.0419 40.4907 14.5843 40.4907 15.3622V16.7993C40.4907 17.5772 40.9174 18.1196 41.2998 18.1196H41.334L44.8673 18.6791L44.9448 18.9398C45.1411 19.6 45.4068 20.241 45.7338 20.8438L45.8636 21.0833L43.7594 23.9766L43.7352 24.0007C43.4645 24.2715 43.547 24.9568 44.0965 25.5063L45.1119 26.5217C45.6624 27.0721 46.3467 27.1537 46.6174 26.8829L46.6415 26.8588L49.5348 24.7565L49.5368 24.7575ZM54.5384 22.1762C51.1782 22.1762 48.4449 19.443 48.4449 16.0828C48.4449 12.7225 51.1782 9.98928 54.5384 9.98928C57.8986 9.98928 60.6319 12.7225 60.6319 16.0828C60.6319 19.443 57.8986 22.1762 54.5384 22.1762ZM54.5384 10.8527C51.6542 10.8527 49.3084 13.1995 49.3084 16.0828C49.3084 18.966 51.6552 21.3128 54.5384 21.3128C57.4216 21.3128 59.7694 18.966 59.7694 16.0828C59.7694 13.1995 57.4226 10.8527 54.5384 10.8527Z" stroke="#EBC025" stroke-width="1.2" mask="url(#path-5-outside-1_266_530)"/>
<mask id="mask0_266_530" style="mask-type:luminance" maskUnits="userSpaceOnUse" x="-1" y="1" width="67" height="61">
<path d="M35.8125 1.42114V34.759H65.2764V57.9563H35.8125V60.7034H-0.299805V1.42114H35.8125Z" fill="white" stroke="white" stroke-width="0.6"/>
</mask>
<g mask="url(#mask0_266_530)">
<path d="M35.6454 15.1799V16.7854H11.7948C11.1369 16.7965 10.6055 17.3339 10.6053 17.9944V48.885C10.6054 49.5525 11.1479 50.0948 11.8153 50.095H53.0966C53.764 50.0948 54.3065 49.5525 54.3065 48.885V34.9758H55.911V48.884C55.911 50.335 54.8081 51.5316 53.3964 51.6819V51.6995H11.8153C10.263 51.6993 9.00089 50.4373 9.00085 48.885V17.9944C9.00107 16.4422 10.2631 15.1801 11.8153 15.1799H35.6454Z" fill="#EB8125" stroke="#EB8125" stroke-width="0.6"/>
</g>
</svg>
