<svg width="152" height="13" viewBox="0 0 152 13" fill="none" xmlns="http://www.w3.org/2000/svg">
<path d="M67.7919 0H54.5833C52.9247 0 51.5858 1.07398 51.5858 2.40444V10.5956C51.5858 11.926 52.9247 13 54.5833 13H81.0007C82.6593 13 83.9981 11.926 83.9981 10.5956V2.40444C83.9981 1.07398 82.6593 0 81.0007 0H67.7919Z" fill="#1B9AED" fill-opacity="0.66"/>
<path d="M135.794 0H122.585C120.927 0 119.588 1.07398 119.588 2.40444V10.5956C119.588 11.926 120.927 13 122.585 13H149.003C150.661 13 152 11.926 152 10.5956V2.40444C152 1.07398 150.661 0 149.003 0H135.794Z" fill="#1B9AED"/>
<path d="M13.2087 0H2.99744C1.342 0 0 1.0765 0 2.40444V10.5956C0 11.9235 1.342 13 2.99744 13H13.2087C14.8641 13 16.2061 11.9235 16.2061 10.5956V2.40444C16.2061 1.0765 14.8641 0 13.2087 0Z" fill="#1B9AED" fill-opacity="0.33"/>
</svg>
